ffmpeg started on 2016-12-08 at 09:00:44
Report written to "Output/x264/results/ffmpeg/crowd_run_2160p50slower15000k.log"
Command line:
Tools/ffmpeg/ffmpeg -benchmark -y -i Input/y4m/crowd_run_2160p50.y4m -c:v libx264 -preset slower -b:v 15000k -an Output/x264/encoded/crowd_run_2160p50slower15000k.mkv
ffmpeg version N-82227-gdb23fde Copyright (c) 2000-2016 the FFmpeg developers
  built with gcc 5.4.0 (Ubuntu 5.4.0-6ubuntu1~16.04.2) 20160609
  configuration: --prefix=/home/jaroslav/ffmpeg_build --pkg-config-flags=--static --extra-cflags=-I/home/jaroslav/ffmpeg_build/include --extra-ldflags=-L/home/jaroslav/ffmpeg_build/lib --bindir=/home/jaroslav/bin --enable-gpl --enable-libass --enable-libfdk-aac --enable-libfreetype --enable-libmp3lame --enable-libopus --enable-libtheora --enable-libvorbis --enable-libvpx --enable-libx264 --enable-libx265 --enable-nvenc --enable-libmfx --enable-libxvid --enable-libgsm --enable-libopencore-amrnb --enable-version3 --enable-nonfree
  libavutil      55. 35.100 / 55. 35.100
  libavcodec     57. 66.101 / 57. 66.101
  libavformat    57. 57.100 / 57. 57.100
  libavdevice    57.  2.100 / 57.  2.100
  libavfilter     6. 66.100 /  6. 66.100
  libswscale      4.  3.100 /  4.  3.100
  libswresample   2.  4.100 /  2.  4.100
  libpostproc    54.  2.100 / 54.  2.100
Input #0, yuv4mpegpipe, from 'Input/y4m/crowd_run_2160p50.y4m':
  Duration: 00:00:10.00, start: 0.000000, bitrate: 4976642 kb/s
    Stream #0:0: Video: rawvideo (I420 / 0x30323449), yuv420p(progressive), 3840x2160, SAR 1:1 DAR 16:9, 50 fps, 50 tbr, 50 tbn, 50 tbc
[libx264 @ 0x3d671c0] using SAR=1/1
[libx264 @ 0x3d671c0] DPB size (8 frames, 259200 mbs) > level limit (5 frames, 184320 mbs)
[libx264 @ 0x3d671c0] using cpu capabilities: MMX2 SSE2Fast SSSE3 SSE4.2 AVX FMA3 AVX2 LZCNT BMI2
[libx264 @ 0x3d671c0] profile High, level 5.2
[libx264 @ 0x3d671c0] 264 - core 148 - H.264/MPEG-4 AVC codec - Copyleft 2003-2016 - http://www.videolan.org/x264.html - options: cabac=1 ref=8 deblock=1:0:0 analyse=0x3:0x133 me=umh subme=9 psy=1 psy_rd=1.00:0.00 mixed_ref=1 me_range=16 chroma_me=1 trellis=2 8x8dct=1 cqm=0 deadzone=21,11 fast_pskip=1 chroma_qp_offset=-2 threads=6 lookahead_threads=1 sliced_threads=0 nr=0 decimate=1 interlaced=0 bluray_compat=0 constrained_intra=0 bframes=3 b_pyramid=2 b_adapt=2 b_bias=0 direct=3 weightb=1 open_gop=0 weightp=2 keyint=250 keyint_min=25 scenecut=40 intra_refresh=0 rc_lookahead=60 rc=abr mbtree=1 bitrate=15000 ratetol=1.0 qcomp=0.60 qpmin=0 qpmax=69 qpstep=4 ip_ratio=1.40 aq=1:1.00
Output #0, matroska, to 'Output/x264/encoded/crowd_run_2160p50slower15000k.mkv':
  Metadata:
    encoder         : Lavf57.57.100
    Stream #0:0: Video: h264 (libx264) (H264 / 0x34363248), yuv420p, 3840x2160 [SAR 1:1 DAR 16:9], q=-1--1, 15000 kb/s, 50 fps, 1k tbn, 50 tbc
    Metadata:
      encoder         : Lavc57.66.101 libx264
    Side data:
      cpb: bitrate max/min/avg: 0/0/15000000 buffer size: 0 vbv_delay: -1
Stream mapping:
  Stream #0:0 -> #0:0 (rawvideo (native) -> h264 (libx264))
Press [q] to stop, [?] for help
frame=   11 fps=0.0 q=0.0 size=       0kB time=00:00:00.00 bitrate=N/A speed=   0x    frame=   25 fps= 22 q=0.0 size=       0kB time=00:00:00.00 bitrate=N/A speed=   0x    frame=   31 fps= 18 q=0.0 size=       0kB time=00:00:00.00 bitrate=N/A speed=   0x    frame=   38 fps= 17 q=0.0 size=       0kB time=00:00:00.00 bitrate=N/A speed=   0x    frame=   46 fps= 16 q=0.0 size=       0kB time=00:00:00.00 bitrate=N/A speed=   0x    frame=   49 fps= 13 q=0.0 size=       0kB time=00:00:00.00 bitrate=N/A speed=   0x    frame=   57 fps= 13 q=0.0 size=       0kB time=00:00:00.00 bitrate=N/A speed=   0x    frame=   65 fps= 14 q=0.0 size=       0kB time=00:00:00.00 bitrate=N/A speed=   0x    frame=   67 fps=8.6 q=0.0 size=       0kB time=00:00:00.00 bitrate=N/A speed=   0x    frame=   71 fps=8.5 q=31.0 size=       1kB time=-00:00:00.03 bitrate=N/A speed=N/A    frame=   72 fps=7.6 q=31.0 size=       1kB time=-00:00:00.01 bitrate=N/A speed=N/A    frame=   73 fps=7.0 q=39.0 size=       1kB time=00:00:00.00 bitrate=5888.0kbits/s speed=9.58e-05x    frame=   75 fps=6.6 q=37.0 size=       1kB time=00:00:00.04 bitrate= 143.6kbits/s speed=0.00362x    frame=   76 fps=6.4 q=47.0 size=       1kB time=00:00:00.06 bitrate=  96.5kbits/s speed=0.00513x    frame=   80 fps=6.4 q=49.0 size=       1kB time=00:00:00.14 bitrate=  41.8kbits/s speed=0.0112x    frame=   82 fps=6.1 q=48.0 size=       1kB time=00:00:00.18 bitrate=  32.5kbits/s speed=0.0134x    frame=   83 fps=5.8 q=49.0 size=       1kB time=00:00:00.20 bitrate=  29.3kbits/s speed=0.0141x    frame=   88 fps=5.9 q=47.0 size=       1kB time=00:00:00.30 bitrate=  19.6kbits/s speed=0.0202x    frame=   89 fps=5.7 q=47.0 size=       1kB time=00:00:00.32 bitrate=  18.3kbits/s speed=0.0205x    frame=   90 fps=5.5 q=47.0 size=       1kB time=00:00:00.34 bitrate=  17.3kbits/s speed=0.0209x    frame=   92 fps=5.4 q=46.0 size=       1kB time=00:00:00.38 bitrate=  15.5kbits/s speed=0.0225x    frame=   95 fps=5.4 q=47.0 size=       1kB time=00:00:00.44 bitrate=  13.4kbits/s speed=0.0252x    frame=   97 fps=5.3 q=46.0 size=       1kB time=00:00:00.48 bitrate=  12.2kbits/s speed=0.0264x    frame=   98 fps=5.2 q=46.0 size=       1kB time=00:00:00.50 bitrate=  11.8kbits/s speed=0.0267x    frame=  100 fps=5.1 q=46.0 size=       1kB time=00:00:00.54 bitrate=  10.9kbits/s speed=0.0277x    frame=  103 fps=5.1 q=46.0 size=       1kB time=00:00:00.60 bitrate=   9.8kbits/s speed=0.0296x    frame=  106 fps=5.0 q=46.0 size=       1kB time=00:00:00.66 bitrate=   8.9kbits/s speed=0.0312x    frame=  108 fps=5.0 q=45.0 size=       1kB time=00:00:00.70 bitrate=   8.4kbits/s speed=0.0323x    frame=  109 fps=4.9 q=46.0 size=       1kB time=00:00:00.72 bitrate=   8.2kbits/s speed=0.0322x    frame=  111 fps=4.8 q=45.0 size=       1kB time=00:00:00.76 bitrate=   7.7kbits/s speed=0.0329x    frame=  114 fps=4.8 q=45.0 size=       1kB time=00:00:00.82 bitrate=   7.2kbits/s speed=0.0346x    frame=  117 fps=4.6 q=45.0 size=       1kB time=00:00:00.88 bitrate=   6.7kbits/s speed=0.035x    frame=  120 fps=4.7 q=45.0 size=       1kB time=00:00:00.94 bitrate=   6.3kbits/s speed=0.0365x    frame=  122 fps=4.6 q=45.0 size=       1kB time=00:00:00.98 bitrate=   6.0kbits/s speed=0.0371x    frame=  123 fps=4.5 q=45.0 size=       1kB time=00:00:01.00 bitrate=   5.9kbits/s speed=0.0369x    frame=  126 fps=4.5 q=45.0 size=       1kB time=00:00:01.06 bitrate=   5.5kbits/s speed=0.0378x    frame=  129 fps=4.5 q=44.0 size=       1kB time=00:00:01.12 bitrate=   5.3kbits/s speed=0.0391x    frame=  130 fps=4.4 q=44.0 size=       1kB time=00:00:01.14 bitrate=   5.2kbits/s speed=0.0388x    frame=  132 fps=4.4 q=44.0 size=       1kB time=00:00:01.18 bitrate=   5.0kbits/s speed=0.0393x    frame=  134 fps=4.3 q=44.0 size=       1kB time=00:00:01.22 bitrate=   4.8kbits/s speed=0.0395x    frame=  136 fps=4.3 q=44.0 size=       1kB time=00:00:01.26 bitrate=   4.7kbits/s speed=0.0401x    frame=  138 fps=4.3 q=44.0 size=       1kB time=00:00:01.30 bitrate=   4.5kbits/s speed=0.0406x    frame=  140 fps=4.3 q=44.0 size=       1kB time=00:00:01.34 bitrate=   4.4kbits/s speed=0.041x    frame=  142 fps=4.2 q=44.0 size=       1kB time=00:00:01.38 bitrate=   4.3kbits/s speed=0.0412x    frame=  144 fps=4.2 q=44.0 size=       1kB time=00:00:01.42 bitrate=   4.1kbits/s speed=0.0416x    frame=  146 fps=4.2 q=44.0 size=       1kB time=00:00:01.46 bitrate=   4.0kbits/s speed=0.0418x    frame=  147 fps=4.1 q=44.0 size=       1kB time=00:00:01.48 bitrate=   4.0kbits/s speed=0.0417x    frame=  150 fps=4.2 q=44.0 size=       1kB time=00:00:01.54 bitrate=   3.8kbits/s speed=0.0427x    frame=  151 fps=4.1 q=44.0 size=       1kB time=00:00:01.56 bitrate=   3.8kbits/s speed=0.0425x    frame=  154 fps=4.0 q=43.0 size=       1kB time=00:00:01.62 bitrate=   3.6kbits/s speed=0.0426x    frame=  156 fps=4.0 q=43.0 size=       1kB time=00:00:01.66 bitrate=   3.5kbits/s speed=0.0428x    frame=  160 fps=4.1 q=43.0 size=       1kB time=00:00:01.74 bitrate=   3.4kbits/s speed=0.0443x    frame=  161 fps=4.0 q=43.0 size=       1kB time=00:00:01.76 bitrate=   3.3kbits/s speed=0.044x    frame=  162 fps=4.0 q=43.0 size=       1kB time=00:00:01.78 bitrate=   3.3kbits/s speed=0.0435x    frame=  164 fps=3.9 q=43.0 size=       1kB time=00:00:01.82 bitrate=   3.2kbits/s speed=0.0438x    frame=  167 fps=3.9 q=43.0 size=       1kB time=00:00:01.88 bitrate=   3.1kbits/s speed=0.0444x    frame=  169 fps=3.9 q=43.0 size=       1kB time=00:00:01.92 bitrate=   3.1kbits/s speed=0.0447x    frame=  170 fps=3.9 q=43.0 size=       1kB time=00:00:01.94 bitrate=   3.0kbits/s speed=0.0443x    frame=  173 fps=3.9 q=43.0 size=       1kB time=00:00:02.00 bitrate=   2.9kbits/s speed=0.0451x    frame=  175 fps=3.9 q=43.0 size=       1kB time=00:00:02.04 bitrate=   2.9kbits/s speed=0.0453x    frame=  177 fps=3.8 q=43.0 size=       1kB time=00:00:02.08 bitrate=   2.8kbits/s speed=0.045x    frame=  180 fps=3.8 q=43.0 size=       1kB time=00:00:02.14 bitrate=   2.8kbits/s speed=0.0458x    frame=  183 fps=3.8 q=43.0 size=       1kB time=00:00:02.20 bitrate=   2.7kbits/s speed=0.0455x    frame=  184 fps=3.8 q=43.0 size=       1kB time=00:00:02.22 bitrate=   2.7kbits/s speed=0.0454x    frame=  188 fps=3.8 q=43.0 size=       1kB time=00:00:02.30 bitrate=   2.6kbits/s speed=0.0465x    frame=  189 fps=3.8 q=43.0 size=       1kB time=00:00:02.32 bitrate=   2.5kbits/s speed=0.0464x    frame=  191 fps=3.7 q=43.0 size=       1kB time=00:00:02.36 bitrate=   2.5kbits/s speed=0.046x    frame=  193 fps=3.7 q=43.0 size=       1kB time=00:00:02.40 bitrate=   2.5kbits/s speed=0.0462x    frame=  195 fps=3.7 q=43.0 size=       1kB time=00:00:02.44 bitrate=   2.4kbits/s speed=0.0466x    frame=  197 fps=3.7 q=43.0 size=    5136kB time=00:00:02.48 bitrate=16958.8kbits/s speed=0.0468x    frame=  199 fps=3.7 q=43.0 size=    5136kB time=00:00:02.52 bitrate=16689.7kbits/s speed=0.0468x    frame=  202 fps=3.7 q=43.0 size=    5136kB time=00:00:02.58 bitrate=16301.7kbits/s speed=0.0468x    frame=  204 fps=3.7 q=42.0 size=    5136kB time=00:00:02.62 bitrate=16053.0kbits/s speed=0.047x    frame=  206 fps=3.6 q=42.0 size=    5136kB time=00:00:02.66 bitrate=15811.7kbits/s speed=0.047x    frame=  210 fps=3.6 q=42.0 size=    5136kB time=00:00:02.74 bitrate=15350.2kbits/s speed=0.047x    frame=  212 fps=3.6 q=42.0 size=    5136kB time=00:00:02.78 bitrate=15129.4kbits/s speed=0.0472x    frame=  216 fps=3.6 q=42.0 size=    5136kB time=00:00:02.86 bitrate=14706.3kbits/s speed=0.0479x    frame=  217 fps=3.6 q=42.0 size=    5136kB time=00:00:02.88 bitrate=14604.2kbits/s speed=0.0473x    frame=  219 fps=3.6 q=42.0 size=    5136kB time=00:00:02.92 bitrate=14404.2kbits/s speed=0.0475x    frame=  221 fps=3.6 q=42.0 size=    5136kB time=00:00:02.96 bitrate=14209.7kbits/s speed=0.0476x    frame=  225 fps=3.5 q=42.0 size=    5136kB time=00:00:03.04 bitrate=13835.8kbits/s speed=0.048x    frame=  226 fps=3.5 q=42.0 size=    5136kB time=00:00:03.06 bitrate=13745.4kbits/s speed=0.0478x    frame=  228 fps=3.5 q=42.0 size=    5136kB time=00:00:03.10 bitrate=13568.1kbits/s speed=0.0479x    frame=  231 fps=3.5 q=42.0 size=    5136kB time=00:00:03.16 bitrate=13310.6kbits/s speed=0.0483x    frame=  232 fps=3.5 q=42.0 size=    5136kB time=00:00:03.18 bitrate=13226.9kbits/s speed=0.0478x    frame=  234 fps=3.5 q=42.0 size=    5136kB time=00:00:03.22 bitrate=13062.7kbits/s speed=0.0479x    frame=  238 fps=3.5 q=42.0 size=    5136kB time=00:00:03.30 bitrate=12746.1kbits/s speed=0.0486x    frame=  239 fps=3.5 q=42.0 size=    5136kB time=00:00:03.32 bitrate=12669.3kbits/s speed=0.0483x    frame=  240 fps=3.5 q=42.0 size=    5136kB time=00:00:03.34 bitrate=12593.5kbits/s speed=0.0481x    frame=  242 fps=3.5 q=42.0 size=    5136kB time=00:00:03.38 bitrate=12444.5kbits/s speed=0.0483x    frame=  245 fps=3.4 q=42.0 size=    5136kB time=00:00:03.44 bitrate=12227.5kbits/s speed=0.0483x    frame=  248 fps=3.4 q=42.0 size=    5136kB time=00:00:03.50 bitrate=12017.9kbits/s speed=0.0485x    frame=  250 fps=3.4 q=42.0 size=    5136kB time=00:00:03.54 bitrate=11882.2kbits/s speed=0.0486x    frame=  251 fps=3.4 q=42.0 size=    5136kB time=00:00:03.56 bitrate=11815.4kbits/s speed=0.0485x    frame=  253 fps=3.4 q=42.0 size=    5136kB time=00:00:03.60 bitrate=11684.2kbits/s speed=0.0484x    frame=  256 fps=3.4 q=42.0 size=    5136kB time=00:00:03.66 bitrate=11492.7kbits/s speed=0.0487x    frame=  258 fps=3.4 q=42.0 size=    5136kB time=00:00:03.70 bitrate=11368.5kbits/s speed=0.0489x    frame=  259 fps=3.4 q=42.0 size=    5136kB time=00:00:03.72 bitrate=11307.4kbits/s speed=0.0487x    frame=  261 fps=3.4 q=42.0 size=    5136kB time=00:00:03.76 bitrate=11187.1kbits/s speed=0.0489x    frame=  263 fps=3.4 q=42.0 size=    5136kB time=00:00:03.80 bitrate=11069.4kbits/s speed=0.0487x    frame=  266 fps=3.4 q=42.0 size=    5136kB time=00:00:03.86 bitrate=10897.4kbits/s speed=0.0488x    frame=  268 fps=3.4 q=42.0 size=    5136kB time=00:00:03.90 bitrate=10785.6kbits/s speed=0.0489x    frame=  270 fps=3.3 q=42.0 size=    5136kB time=00:00:03.94 bitrate=10676.2kbits/s speed=0.0488x    frame=  272 fps=3.3 q=42.0 size=    5136kB time=00:00:03.98 bitrate=10568.9kbits/s speed=0.0489x    frame=  274 fps=3.3 q=42.0 size=    5136kB time=00:00:04.02 bitrate=10463.8kbits/s speed=0.049x    frame=  276 fps=3.3 q=42.0 size=    5136kB time=00:00:04.06 bitrate=10360.7kbits/s speed=0.0492x    frame=  277 fps=3.3 q=42.0 size=    5136kB time=00:00:04.08 bitrate=10309.9kbits/s speed=0.049x    frame=  279 fps=3.3 q=42.0 size=    5136kB time=00:00:04.12 bitrate=10209.9kbits/s speed=0.0491x    frame=  281 fps=3.3 q=42.0 size=    5136kB time=00:00:04.16 bitrate=10111.7kbits/s speed=0.0492x    frame=  282 fps=3.3 q=42.0 size=    5136kB time=00:00:04.18 bitrate=10063.3kbits/s speed=0.0491x    frame=  284 fps=3.3 q=42.0 size=    5136kB time=00:00:04.22 bitrate=9968.0kbits/s speed=0.0493x    frame=  285 fps=3.3 q=42.0 size=    5136kB time=00:00:04.24 bitrate=9921.0kbits/s speed=0.0492x    frame=  287 fps=3.3 q=42.0 size=    5136kB time=00:00:04.28 bitrate=9828.3kbits/s speed=0.0493x    frame=  289 fps=3.3 q=42.0 size=    5136kB time=00:00:04.32 bitrate=9737.3kbits/s speed=0.0491x    frame=  291 fps=3.3 q=42.0 size=    5136kB time=00:00:04.36 bitrate=9648.0kbits/s speed=0.0492x    frame=  293 fps=3.3 q=42.0 size=    5136kB time=00:00:04.40 bitrate=9560.3kbits/s speed=0.0493x    frame=  295 fps=3.3 q=42.0 size=    5136kB time=00:00:04.44 bitrate=9474.2kbits/s speed=0.0495x    frame=  297 fps=3.3 q=42.0 size=    5136kB time=00:00:04.48 bitrate=9389.6kbits/s speed=0.0492x    frame=  299 fps=3.3 q=42.0 size=    5136kB time=00:00:04.52 bitrate=9306.5kbits/s speed=0.0493x    frame=  301 fps=3.3 q=42.0 size=    5136kB time=00:00:04.56 bitrate=9224.9kbits/s speed=0.0493x    frame=  304 fps=3.2 q=42.0 size=    5136kB time=00:00:04.62 bitrate=9105.1kbits/s speed=0.0493x    frame=  306 fps=3.2 q=42.0 size=    5136kB time=00:00:04.66 bitrate=9027.0kbits/s speed=0.0494x    frame=  308 fps=3.2 q=42.0 size=    5136kB time=00:00:04.70 bitrate=8950.2kbits/s speed=0.0494x    frame=  310 fps=3.2 q=42.0 size=    5136kB time=00:00:04.74 bitrate=8874.7kbits/s speed=0.0495x    frame=  312 fps=3.2 q=42.0 size=    5136kB time=00:00:04.78 bitrate=8800.4kbits/s speed=0.0493x    frame=  313 fps=3.2 q=42.0 size=    5136kB time=00:00:04.80 bitrate=8763.8kbits/s speed=0.0492x    frame=  317 fps=3.2 q=42.0 size=    5136kB time=00:00:04.88 bitrate=8620.1kbits/s speed=0.0498x    frame=  319 fps=3.2 q=42.0 size=    5136kB time=00:00:04.92 bitrate=8550.1kbits/s speed=0.0495x    frame=  325 fps=3.3 q=42.0 size=    9325kB time=00:00:05.04 bitrate=15154.2kbits/s speed=0.0504x    frame=  327 fps=3.2 q=42.0 size=    9325kB time=00:00:05.08 bitrate=15034.9kbits/s speed=0.0504x    frame=  329 fps=3.2 q=42.0 size=    9325kB time=00:00:05.12 bitrate=14917.5kbits/s speed=0.0505x    frame=  331 fps=3.2 q=42.0 size=    9325kB time=00:00:05.16 bitrate=14801.8kbits/s speed=0.0506x    frame=  333 fps=3.2 q=42.0 size=    9325kB time=00:00:05.20 bitrate=14688.0kbits/s speed=0.0506x    frame=  334 fps=3.2 q=42.0 size=    9325kB time=00:00:05.22 bitrate=14631.7kbits/s speed=0.0505x    frame=  337 fps=3.2 q=42.0 size=    9325kB time=00:00:05.28 bitrate=14465.5kbits/s speed=0.0506x    frame=  340 fps=3.2 q=42.0 size=    9325kB time=00:00:05.34 bitrate=14303.0kbits/s speed=0.0505x    frame=  341 fps=3.2 q=42.0 size=    9325kB time=00:00:05.36 bitrate=14249.6kbits/s speed=0.0505x    frame=  345 fps=3.2 q=42.0 size=    9325kB time=00:00:05.44 bitrate=14040.1kbits/s speed=0.0507x    frame=  348 fps=3.2 q=42.0 size=    9325kB time=00:00:05.50 bitrate=13887.0kbits/s speed=0.0506x    frame=  352 fps=3.2 q=42.0 size=    9325kB time=00:00:05.58 bitrate=13687.9kbits/s speed=0.0506x    frame=  353 fps=3.2 q=42.0 size=    9325kB time=00:00:05.60 bitrate=13639.0kbits/s speed=0.0505x    frame=  355 fps=3.2 q=42.0 size=    9325kB time=00:00:05.64 bitrate=13542.3kbits/s speed=0.0506x    frame=  358 fps=3.2 q=42.0 size=    9325kB time=00:00:05.70 bitrate=13399.8kbits/s speed=0.0509x    frame=  360 fps=3.2 q=42.0 size=    9325kB time=00:00:05.74 bitrate=13306.4kbits/s speed=0.0507x    frame=  361 fps=3.2 q=42.0 size=    9325kB time=00:00:05.76 bitrate=13260.3kbits/s speed=0.0506x    frame=  364 fps=3.2 q=42.0 size=    9325kB time=00:00:05.82 bitrate=13123.6kbits/s speed=0.0508x    frame=  365 fps=3.2 q=42.0 size=    9325kB time=00:00:05.84 bitrate=13078.6kbits/s speed=0.0508x    frame=  368 fps=3.2 q=42.0 size=    9325kB time=00:00:05.90 bitrate=12945.7kbits/s speed=0.0506x    frame=  370 fps=3.2 q=42.0 size=    9325kB time=00:00:05.94 bitrate=12858.5kbits/s speed=0.0506x    frame=  374 fps=3.2 q=42.0 size=    9325kB time=00:00:06.02 bitrate=12687.6kbits/s speed=0.0509x    frame=  376 fps=3.1 q=42.0 size=    9325kB time=00:00:06.06 bitrate=12603.9kbits/s speed=0.0508x    frame=  378 fps=3.1 q=42.0 size=    9325kB time=00:00:06.10 bitrate=12521.3kbits/s speed=0.0508x    frame=  380 fps=3.1 q=42.0 size=    9325kB time=00:00:06.14 bitrate=12439.7kbits/s speed=0.0508x    frame=  383 fps=3.1 q=42.0 size=    9325kB time=00:00:06.20 bitrate=12319.4kbits/s speed=0.051x    frame=  385 fps=3.1 q=42.0 size=    9325kB time=00:00:06.24 bitrate=12240.4kbits/s speed=0.0507x    frame=  387 fps=3.1 q=42.0 size=    9325kB time=00:00:06.28 bitrate=12162.4kbits/s speed=0.0508x    frame=  390 fps=3.1 q=42.0 size=    9325kB time=00:00:06.34 bitrate=12047.4kbits/s speed=0.051x    frame=  393 fps=3.1 q=42.0 size=    9325kB time=00:00:06.40 bitrate=11934.4kbits/s speed=0.0509x    frame=  395 fps=3.1 q=42.0 size=    9325kB time=00:00:06.44 bitrate=11860.3kbits/s speed=0.0509x    frame=  398 fps=3.1 q=42.0 size=    9325kB time=00:00:06.50 bitrate=11750.9kbits/s speed=0.0511x    frame=  399 fps=3.1 q=42.0 size=    9325kB time=00:00:06.52 bitrate=11714.8kbits/s speed=0.0508x    frame=  403 fps=3.1 q=42.0 size=    9325kB time=00:00:06.60 bitrate=11572.8kbits/s speed=0.0511x    frame=  405 fps=3.1 q=42.0 size=    9325kB time=00:00:06.64 bitrate=11503.1kbits/s speed=0.0512x    frame=  406 fps=3.1 q=42.0 size=    9325kB time=00:00:06.66 bitrate=11468.6kbits/s speed=0.0509x    frame=  408 fps=3.1 q=42.0 size=    9325kB time=00:00:06.70 bitrate=11400.1kbits/s speed=0.0509x    frame=  411 fps=3.1 q=42.0 size=    9325kB time=00:00:06.76 bitrate=11299.0kbits/s speed=0.0511x    frame=  413 fps=3.1 q=42.0 size=    9325kB time=00:00:06.80 bitrate=11232.5kbits/s speed=0.0511x    frame=  414 fps=3.1 q=42.0 size=    9325kB time=00:00:06.82 bitrate=11199.6kbits/s speed=0.0509x    frame=  416 fps=3.1 q=42.0 size=    9325kB time=00:00:06.86 bitrate=11134.3kbits/s speed=0.051x    frame=  419 fps=3.1 q=42.0 size=    9325kB time=00:00:06.92 bitrate=11037.8kbits/s speed=0.0512x    frame=  421 fps=3.1 q=42.0 size=    9325kB time=00:00:06.96 bitrate=10974.3kbits/s speed=0.0511x    frame=  423 fps=3.1 q=42.0 size=    9325kB time=00:00:07.00 bitrate=10911.6kbits/s speed=0.051x    frame=  425 fps=3.1 q=42.0 size=    9325kB time=00:00:07.04 bitrate=10849.6kbits/s speed=0.0511x    frame=  427 fps=3.1 q=42.0 size=    9325kB time=00:00:07.08 bitrate=10788.3kbits/s speed=0.051x    frame=  430 fps=3.1 q=42.0 size=    9325kB time=00:00:07.14 bitrate=10697.7kbits/s speed=0.0513x    frame=  431 fps=3.1 q=42.0 size=    9325kB time=00:00:07.16 bitrate=10667.8kbits/s speed=0.051x    frame=  433 fps=3.1 q=42.0 size=    9325kB time=00:00:07.20 bitrate=10608.6kbits/s speed=0.051x    frame=  436 fps=3.1 q=42.0 size=    9325kB time=00:00:07.26 bitrate=10520.9kbits/s speed=0.0511x    frame=  438 fps=3.1 q=42.0 size=    9325kB time=00:00:07.30 bitrate=10463.3kbits/s speed=0.0512x    frame=  439 fps=3.1 q=42.0 size=    9325kB time=00:00:07.32 bitrate=10434.7kbits/s speed=0.0511x    frame=  441 fps=3.1 q=42.0 size=    9325kB time=00:00:07.36 bitrate=10378.0kbits/s speed=0.0511x    frame=  443 fps=3.1 q=42.0 size=    9325kB time=00:00:07.40 bitrate=10321.9kbits/s speed=0.0511x    frame=  446 fps=3.1 q=42.0 size=    9325kB time=00:00:07.46 bitrate=10238.9kbits/s speed=0.0511x    frame=  449 fps=3.1 q=42.0 size=    9325kB time=00:00:07.52 bitrate=10157.2kbits/s speed=0.0513x    frame=  450 fps=3.1 q=42.0 size=    9325kB time=00:00:07.54 bitrate=10130.3kbits/s speed=0.0512x    frame=  452 fps=3.1 q=42.0 size=    9325kB time=00:00:07.58 bitrate=10076.8kbits/s speed=0.0512x    frame=  454 fps=3.0 q=42.0 size=    9325kB time=00:00:07.62 bitrate=10023.9kbits/s speed=0.0511x    frame=  456 fps=3.0 q=42.0 size=    9325kB time=00:00:07.66 bitrate=9971.6kbits/s speed=0.0511x    frame=  459 fps=3.0 q=42.0 size=    9325kB time=00:00:07.72 bitrate=9894.1kbits/s speed=0.0513x    frame=  461 fps=3.0 q=42.0 size=    9325kB time=00:00:07.76 bitrate=9843.1kbits/s speed=0.0513x    frame=  462 fps=3.0 q=42.0 size=   14466kB time=00:00:07.78 bitrate=15230.4kbits/s speed=0.0511x    frame=  464 fps=3.0 q=42.0 size=   14466kB time=00:00:07.82 bitrate=15152.5kbits/s speed=0.0512x    frame=  467 fps=3.0 q=42.0 size=   14466kB time=00:00:07.88 bitrate=15037.1kbits/s speed=0.0513x    frame=  469 fps=3.0 q=42.0 size=   14466kB time=00:00:07.92 bitrate=14961.2kbits/s speed=0.0514x    frame=  470 fps=3.0 q=42.0 size=   14466kB time=00:00:07.94 bitrate=14923.5kbits/s speed=0.0511x    frame=  472 fps=3.0 q=42.0 size=   14466kB time=00:00:07.98 bitrate=14848.7kbits/s speed=0.0512x    frame=  474 fps=3.0 q=42.0 size=   14466kB time=00:00:08.02 bitrate=14774.7kbits/s speed=0.0512x    frame=  476 fps=3.0 q=42.0 size=   14466kB time=00:00:08.06 bitrate=14701.4kbits/s speed=0.0513x    frame=  478 fps=3.0 q=42.0 size=   14466kB time=00:00:08.10 bitrate=14628.8kbits/s speed=0.0511x    frame=  480 fps=3.0 q=42.0 size=   14466kB time=00:00:08.14 bitrate=14556.9kbits/s speed=0.0512x    frame=  483 fps=3.0 q=42.0 size=   14466kB time=00:00:08.20 bitrate=14450.4kbits/s speed=0.0514x    frame=  485 fps=3.0 q=42.0 size=   14466kB time=00:00:08.24 bitrate=14380.3kbits/s speed=0.0512x    frame=  487 fps=3.0 q=42.0 size=   14466kB time=00:00:08.28 bitrate=14310.8kbits/s speed=0.0513x    frame=  490 fps=3.0 q=42.0 size=   14466kB time=00:00:08.34 bitrate=14207.9kbits/s speed=0.0514x    frame=  492 fps=3.0 q=42.0 size=   14466kB time=00:00:08.38 bitrate=14140.0kbits/s speed=0.0512x    frame=  494 fps=3.0 q=42.0 size=   14466kB time=00:00:08.42 bitrate=14072.9kbits/s speed=0.0513x    frame=  497 fps=3.0 q=42.0 size=   14466kB time=00:00:08.48 bitrate=13973.3kbits/s speed=0.0514x    frame=  499 fps=3.0 q=42.0 size=   14466kB time=00:00:08.52 bitrate=13907.7kbits/s speed=0.0515x    frame=  500 fps=3.0 q=42.0 size=   14466kB time=00:00:08.54 bitrate=13875.2kbits/s speed=0.0513x    frame=  500 fps=2.6 q=-1.0 Lsize=   18148kB time=00:00:09.94 bitrate=14955.1kbits/s speed=0.052x    
video:18143kB audio:0kB subtitle:0kB other streams:0kB global headers:0kB muxing overhead: 0.025782%
bench: utime=719.032s
bench: maxrss=2509736kB
[libx264 @ 0x3d671c0] frame I:2     Avg QP:31.77  size:594855
[libx264 @ 0x3d671c0] frame P:134   Avg QP:41.06  size: 71337
[libx264 @ 0x3d671c0] frame B:364   Avg QP:44.20  size: 21509
[libx264 @ 0x3d671c0] consecutive B-frames:  0.4%  2.8% 14.4% 82.4%
[libx264 @ 0x3d671c0] mb I  I16..4: 12.2% 79.7%  8.1%
[libx264 @ 0x3d671c0] mb P  I16..4:  1.4%  4.8%  0.0%  P16..4: 38.8%  5.6%  6.2%  0.0%  0.0%    skip:43.2%
[libx264 @ 0x3d671c0] mb B  I16..4:  0.0%  0.1%  0.0%  B16..8: 45.3%  2.2%  0.2%  direct: 0.4%  skip:51.7%  L0:43.5% L1:55.8% BI: 0.7%
[libx264 @ 0x3d671c0] final ratefactor: 33.70
[libx264 @ 0x3d671c0] 8x8 transform intra:77.9% inter:84.7%
[libx264 @ 0x3d671c0] direct mvs  spatial:99.2% temporal:0.8%
[libx264 @ 0x3d671c0] coded y,uvDC,uvAC intra: 44.5% 54.7% 20.8% inter: 4.2% 5.3% 0.1%
[libx264 @ 0x3d671c0] i16 v,h,dc,p: 36% 21%  7% 36%
[libx264 @ 0x3d671c0] i8 v,h,dc,ddl,ddr,vr,hd,vl,hu:  7%  4%  4% 12% 16% 16% 16% 14% 12%
[libx264 @ 0x3d671c0] i4 v,h,dc,ddl,ddr,vr,hd,vl,hu:  7%  4%  1% 12% 16% 16% 16% 13% 15%
[libx264 @ 0x3d671c0] i8c dc,h,v,p: 44% 17% 18% 20%
[libx264 @ 0x3d671c0] Weighted P-Frames: Y:0.7% UV:0.0%
[libx264 @ 0x3d671c0] ref P L0: 62.1%  8.8% 13.1%  3.9%  3.6%  3.0%  3.2%  2.2%  0.0%
[libx264 @ 0x3d671c0] ref B L0: 94.1%  3.4%  1.3%  0.4%  0.3%  0.3%  0.2%
[libx264 @ 0x3d671c0] ref B L1: 98.9%  1.1%
[libx264 @ 0x3d671c0] kb/s:14862.47
